PathFileType	4	(X/Y/Z)	/tmp/tmpfbxcaoho/Subject7/MarkerData/Take_2_10hz_segment_1.trc
DataRate	CameraRate	NumFrames	NumMarkers	Units	OrigDataRate	OrigDataStartFrame	OrigNumFrames
50.0148	50.0148	8	39	m	50.0148	687	1375
Frame#	Time	C7			CLAV			LANK			LASI			LBHD			LELB			LFHD			LFIN			LFRM			LHEE			LKNE			LPSI			LSHO			LTHI			LTIB			LTOE			LUPA			LWRA			LWRB			RANK			RASI			RBAK			RBHD			RELB			RFHD			RFIN			RFRM			RHEE			RKNE			RPSI			RSHO			RTHI			RTIB			RTOE			RUPA			RWRA			RWRB			STRN			T10		
		X1	Y1	Z1	X2	Y2	Z2	X3	Y3	Z3	X4	Y4	Z4	X5	Y5	Z5	X6	Y6	Z6	X7	Y7	Z7	X8	Y8	Z8	X9	Y9	Z9	X10	Y10	Z10	X11	Y11	Z11	X12	Y12	Z12	X13	Y13	Z13	X14	Y14	Z14	X15	Y15	Z15	X16	Y16	Z16	X17	Y17	Z17	X18	Y18	Z18	X19	Y19	Z19	X20	Y20	Z20	X21	Y21	Z21	X22	Y22	Z22	X23	Y23	Z23	X24	Y24	Z24	X25	Y25	Z25	X26	Y26	Z26	X27	Y27	Z27	X28	Y28	Z28	X29	Y29	Z29	X30	Y30	Z30	X31	Y31	Z31	X32	Y32	Z32	X33	Y33	Z33	X34	Y34	Z34	X35	Y35	Z35	X36	Y36	Z36	X37	Y37	Z37	X38	Y38	Z38	X39	Y39	Z39

688	53.7559	0.372481	1.35037	-0.627847	0.42446	1.25161	-0.734047	0.352808	0.0742163	-0.595165	0.300179	0.829012	-0.72426	0.309559	1.50843	-0.702764	0.229698	1.20213	-0.972694	0.443438	1.49666	-0.834335	0.575825	1.23276	-1.01861	0.371292	1.23134	-1.00374	0.385537	0.0261731	-0.482466	0.354121	0.428423	-0.779523	0.235905	0.864551	-0.587038	0.245839	1.31161	-0.72541	0.314605	0.600432	-0.770728	0.335372	0.244499	-0.692609	0.441519	0.0233863	-0.745778	0.203758	1.23113	-0.845427	0.50573	1.17965	-0.984693	0.496747	1.24107	-1.04845	0.488587	0.182885	-0.346306	0.546458	0.854073	-0.60719	0.420199	1.21974	-0.499891	0.390366	1.51289	-0.636672	0.723278	1.02974	-0.622837	0.510783	1.50591	-0.755945	0.809512	0.733527	-0.765643	0.7723	0.900791	-0.657256	0.384321	0.165288	-0.351283	0.686974	0.462039	-0.568041	0.455348	0.882127	-0.462677	0.569861	1.30196	-0.627487	0.632084	0.676952	-0.571761	0.594154	0.321939	-0.438658	0.606191	0.0419521	-0.429427	0.669074	1.11965	-0.617535	0.731526	0.786747	-0.754825	0.802235	0.768125	-0.703902	0.439588	1.09086	-0.759924	0.325252	1.00754	-0.523393
689	53.7759	0.374942	1.35241	-0.624293	0.419392	1.25481	-0.73484	0.352265	0.0740805	-0.594687	0.296381	0.833054	-0.726392	0.309509	1.51232	-0.689796	0.208448	1.20084	-0.960037	0.430029	1.50199	-0.832852	0.549992	1.2349	-1.01829	0.347794	1.23024	-0.997605	0.385202	0.0263121	-0.482519	0.350686	0.428437	-0.779455	0.239468	0.865222	-0.585051	0.241305	1.31449	-0.71486	0.312068	0.60105	-0.77179	0.333084	0.244553	-0.691959	0.441388	0.0233332	-0.745744	0.191465	1.23201	-0.831887	0.483025	1.17894	-0.984592	0.470552	1.24009	-1.04805	0.497803	0.158844	-0.415568	0.54848	0.855623	-0.620802	0.429974	1.21957	-0.501433	0.39602	1.51498	-0.631083	0.716868	1.02733	-0.651288	0.504254	1.50904	-0.761497	0.767339	0.726769	-0.812368	0.754942	0.896394	-0.696199	0.393323	0.138088	-0.417881	0.689381	0.464879	-0.610519	0.465047	0.880446	-0.471388	0.571412	1.30401	-0.63694	0.63612	0.680415	-0.59801	0.600183	0.308552	-0.494321	0.616164	0.0369294	-0.524835	0.666335	1.11857	-0.639432	0.699984	0.793391	-0.796478	0.769517	0.763218	-0.749909	0.433638	1.09523	-0.763712	0.332951	1.00793	-0.522657
690	53.7959	0.379683	1.35413	-0.620747	0.414971	1.25754	-0.735416	0.351896	0.0741539	-0.594161	0.293704	0.836469	-0.727058	0.312551	1.51597	-0.675818	0.18641	1.20138	-0.944262	0.41657	1.50702	-0.830818	0.52217	1.23605	-1.01778	0.323071	1.23011	-0.989186	0.384349	0.0267286	-0.482387	0.348539	0.428542	-0.778942	0.24493	0.865719	-0.582177	0.23867	1.31743	-0.702329	0.310512	0.601692	-0.771914	0.331558	0.244762	-0.691449	0.441293	0.02331	-0.74572	0.179764	1.23392	-0.815528	0.45854	1.17818	-0.983589	0.442432	1.23938	-1.04609	0.513438	0.148903	-0.450041	0.551242	0.858007	-0.634392	0.44277	1.21942	-0.504059	0.404399	1.51659	-0.626149	0.709281	1.02413	-0.680499	0.497847	1.51171	-0.767717	0.721518	0.721675	-0.852152	0.735122	0.891892	-0.732814	0.408641	0.131232	-0.448157	0.692574	0.467157	-0.638893	0.476613	0.879985	-0.480059	0.573977	1.30559	-0.64872	0.640444	0.682462	-0.619212	0.61107	0.303214	-0.525846	0.62057	0.0275	-0.568697	0.66302	1.11702	-0.663207	0.667012	0.799046	-0.832987	0.733698	0.759026	-0.790201	0.42697	1.09862	-0.767225	0.343197	1.00833	-0.521938
691	53.8159	0.386617	1.35515	-0.6183	0.411749	1.25945	-0.736352	0.351997	0.0745102	-0.593694	0.292516	0.838961	-0.726866	0.318438	1.51879	-0.662558	0.164649	1.2024	-0.926311	0.40366	1.51136	-0.8287	0.493276	1.23575	-1.01707	0.29786	1.22983	-0.979224	0.384272	0.0271021	-0.482079	0.347467	0.428573	-0.778677	0.252046	0.865889	-0.579077	0.238541	1.31977	-0.689443	0.30994	0.602129	-0.771622	0.330733	0.245048	-0.691214	0.441231	0.023257	-0.745801	0.169675	1.2358	-0.797744	0.432613	1.17668	-0.981888	0.413216	1.23792	-1.04309	0.524075	0.147052	-0.459531	0.554942	0.859807	-0.647303	0.457776	1.21905	-0.508189	0.414959	1.51706	-0.623634	0.700917	1.02044	-0.709891	0.491601	1.51363	-0.774852	0.674476	0.718265	-0.884566	0.714408	0.887912	-0.766767	0.4194	0.134888	-0.453184	0.694793	0.465648	-0.655411	0.489143	0.88032	-0.488581	0.577302	1.30656	-0.662441	0.645265	0.681293	-0.634792	0.619233	0.301204	-0.538986	0.6178	0.0189783	-0.576557	0.659985	1.11623	-0.687555	0.634373	0.803973	-0.864422	0.697019	0.75568	-0.824397	0.420613	1.09989	-0.770556	0.355833	1.00822	-0.52224
692	53.8359	0.394708	1.35534	-0.617198	0.409767	1.26041	-0.73758	0.352942	0.0750359	-0.593246	0.292118	0.840449	-0.726	0.327133	1.52067	-0.651333	0.144572	1.20194	-0.906908	0.392107	1.5141	-0.826842	0.464829	1.23376	-1.01541	0.27363	1.228	-0.967997	0.385896	0.0274082	-0.481837	0.345794	0.428328	-0.77919	0.259605	0.865444	-0.575914	0.240586	1.321	-0.677536	0.308909	0.602157	-0.771294	0.33003	0.245297	-0.690964	0.441202	0.0230543	-0.746112	0.16172	1.23638	-0.779691	0.406988	1.17363	-0.978934	0.384482	1.2348	-1.03896	0.526606	0.146603	-0.461249	0.558697	0.860766	-0.658834	0.472874	1.21813	-0.51356	0.427328	1.51633	-0.624376	0.69209	1.01744	-0.738192	0.485909	1.51413	-0.782898	0.628302	0.718332	-0.910874	0.693861	0.885309	-0.797915	0.422168	0.137393	-0.453833	0.697125	0.461735	-0.662691	0.501054	0.881193	-0.4963	0.580646	1.30686	-0.676388	0.650396	0.678229	-0.644805	0.622017	0.298745	-0.543789	0.613834	0.0177713	-0.573539	0.656559	1.11582	-0.710985	0.603454	0.809412	-0.891571	0.661863	0.754456	-0.853721	0.416032	1.09956	-0.773044	0.369083	1.0076	-0.522501
693	53.8559	0.402519	1.35495	-0.616482	0.408176	1.26078	-0.738103	0.354836	0.0755421	-0.592583	0.291581	0.840997	-0.724857	0.337968	1.52209	-0.641864	0.12667	1.20057	-0.886249	0.382563	1.51543	-0.824092	0.438055	1.23083	-1.0108	0.25131	1.22529	-0.954757	0.388741	0.0277615	-0.481707	0.343158	0.427564	-0.780292	0.266123	0.864169	-0.5731	0.243593	1.32162	-0.666228	0.306826	0.601595	-0.771219	0.329325	0.245286	-0.690564	0.441242	0.0227046	-0.746601	0.155274	1.23622	-0.761473	0.382994	1.16965	-0.973284	0.357339	1.23094	-1.03217	0.526584	0.146502	-0.463982	0.561331	0.861491	-0.668925	0.486082	1.21621	-0.519722	0.44061	1.51518	-0.626289	0.682573	1.01598	-0.764396	0.480997	1.51332	-0.790648	0.584482	0.723197	-0.933447	0.673424	0.884928	-0.826559	0.421957	0.138459	-0.458233	0.701397	0.458675	-0.665705	0.510891	0.881826	-0.503198	0.582956	1.30671	-0.688637	0.654911	0.676046	-0.651956	0.623658	0.2966	-0.546966	0.611988	0.019263	-0.571954	0.651989	1.1155	-0.732421	0.574124	0.817095	-0.915928	0.628522	0.75681	-0.88043	0.411922	1.0995	-0.774462	0.380704	1.00663	-0.521368
694	53.8759	0.408982	1.35415	-0.615349	0.406166	1.26072	-0.737432	0.356552	0.0758518	-0.591967	0.290667	0.840747	-0.724136	0.349616	1.52273	-0.632722	0.110134	1.19892	-0.865062	0.374663	1.51703	-0.818676	0.41313	1.2273	-1.00214	0.230552	1.22237	-0.939159	0.391055	0.0281716	-0.48187	0.341444	0.426411	-0.781891	0.270731	0.862095	-0.571326	0.24621	1.32214	-0.655651	0.305364	0.600677	-0.771784	0.328906	0.244934	-0.690658	0.441323	0.0223692	-0.747013	0.149379	1.23597	-0.74367	0.360446	1.1655	-0.963884	0.332023	1.22693	-1.02135	0.529507	0.148605	-0.468094	0.562481	0.862117	-0.677287	0.496475	1.21371	-0.52537	0.453316	1.51313	-0.627687	0.67217	1.01602	-0.787994	0.476063	1.5123	-0.796214	0.542492	0.734073	-0.954694	0.65239	0.886977	-0.852972	0.424654	0.142512	-0.463557	0.707318	0.458368	-0.670318	0.517774	0.881552	-0.509202	0.583555	1.30625	-0.698427	0.658223	0.675853	-0.659307	0.627942	0.296942	-0.551546	0.611886	0.0198357	-0.572323	0.646023	1.11548	-0.751308	0.544901	0.828446	-0.938594	0.595304	0.763264	-0.905669	0.407346	1.09973	-0.77467	0.389582	1.00538	-0.519799
695	53.8959	0.413702	1.35289	-0.613845	0.403789	1.26014	-0.736046	0.356907	0.0758868	-0.591504	0.289719	0.840134	-0.724023	0.360871	1.52201	-0.623457	0.0944456	1.19537	-0.844044	0.366964	1.51933	-0.810905	0.390686	1.22077	-0.989976	0.211245	1.2174	-0.921706	0.391962	0.0284482	-0.482108	0.341027	0.425223	-0.783912	0.273193	0.859709	-0.570723	0.247703	1.32211	-0.646715	0.305047	0.59972	-0.773031	0.328586	0.244469	-0.691382	0.441409	0.0221644	-0.747294	0.143702	1.23465	-0.727314	0.33956	1.15945	-0.950267	0.30902	1.22064	-1.00688	0.534864	0.15299	-0.473806	0.562595	0.862329	-0.683094	0.504003	1.21115	-0.530001	0.464251	1.5098	-0.628898	0.66081	1.01757	-0.809488	0.469783	1.51179	-0.798992	0.502026	0.750578	-0.975372	0.630561	0.891616	-0.877621	0.430035	0.149853	-0.469611	0.712952	0.460199	-0.678411	0.521456	0.879728	-0.513643	0.582692	1.30585	-0.705866	0.660506	0.676951	-0.666838	0.633647	0.299701	-0.558724	0.612227	0.0192987	-0.573205	0.638862	1.11642	-0.767984	0.515362	0.843502	-0.959469	0.561366	0.773619	-0.929412	0.402911	1.09958	-0.773823	0.395759	1.00385	-0.519753
